<?xml version="1.0" encoding="UTF-8" standalone="no"?>
<!-- Created with Inkscape (http://www.inkscape.org/) -->

<svg
   width="512"
   height="291"
   viewBox="0 0 135.4667 76.994083"
   version="1.1"
   id="svg5"
   inkscape:version="1.1 (c68e22c387, 2021-05-23)"
   sodipodi:docname="logo.svg"
   xmlns:inkscape="http://www.inkscape.org/namespaces/inkscape"
   xmlns:sodipodi="http://sodipodi.sourceforge.net/DTD/sodipodi-0.dtd"
   xmlns="http://www.w3.org/2000/svg"
   xmlns:svg="http://www.w3.org/2000/svg">
  <sodipodi:namedview
     id="namedview7"
     pagecolor="#ffffff"
     bordercolor="#666666"
     borderopacity="1.0"
     inkscape:pageshadow="2"
     inkscape:pageopacity="0.0"
     inkscape:pagecheckerboard="0"
     inkscape:document-units="px"
     showgrid="false"
     inkscape:zoom="0.8125"
     inkscape:cx="78.769231"
     inkscape:cy="275.07692"
     inkscape:window-width="1920"
     inkscape:window-height="1017"
     inkscape:window-x="1358"
     inkscape:window-y="-8"
     inkscape:window-maximized="1"
     inkscape:current-layer="layer1"
     width="511px" />
  <defs
     id="defs2" />
  <g
     inkscape:label="Camada 1"
     inkscape:groupmode="layer"
     id="layer1">
    <g
       id="g833"
       transform="translate(0,-27.679536)">
      <path
         style="fill:#550000;fill-opacity:1;stroke:none;stroke-width:0.165054px;stroke-linecap:butt;stroke-linejoin:miter;stroke-opacity:1"
         d="M 0.25873197,98.266492 11.059123,80.896794 19.521283,84.793842 51.811111,56.84644 79.313132,72.434633 135.20794,27.785597 75.527428,91.808527 53.258584,62.747685 13.62004,96.930363 11.504499,84.793842 Z"
         id="path869" />
      <path
         id="path871"
         style="fill:#ffffff;fill-opacity:1;stroke:none;stroke-width:0.165054px;stroke-linecap:butt;stroke-linejoin:miter;stroke-opacity:1"
         d="m 21.87569,52.436272 c 3.070558,0.944788 3.542867,3.464208 3.542867,3.464208 v 29.682069 c -0.431573,1.25875 -1.190941,2.086568 -1.889421,2.618621 V 57.159987 c -0.433028,-1.456545 -1.2205,-1.692774 -1.2205,-1.692774 H 19.7893 c 2.917493,0.688535 2.716305,2.659245 2.716305,2.659245 v 30.611464 c -0.141854,0.245694 -0.41179,0.261864 -0.551256,0.308831 h 21.415162 c 2.361968,0.314925 3.936805,1.889418 3.936805,1.889418 v -8.424216 c -1.338448,1.732103 -4.094123,1.574465 -4.094123,1.574465 H 32.583272 V 55.74284 c 0.551124,-2.047039 3.385549,-3.306568 3.385549,-3.306568 z m -0.4323,37.641752 -1.531267,1.531267 c 0,0 17.315036,0.04809 20.684023,0.130882 3.368985,0.08281 4.423264,1.604438 4.423264,1.604438 v -1.94809 c -1.431149,-1.351898 -4.907788,-1.318497 -4.907788,-1.318497 z" />
      <path
         id="path1132"
         style="fill:#ffffff;fill-opacity:1;stroke:none;stroke-width:0.165054px;stroke-linecap:butt;stroke-linejoin:miter;stroke-opacity:1"
         d="m 69.861384,52.790558 c -0.270179,-0.0028 -0.423917,0.0055 -0.423917,0.0055 H 50.454278 c 3.851148,1.13651 3.33945,3.644413 3.33945,3.644413 0,0 -0.0585,28.730213 0,29.063763 -0.417991,3.232643 -2.922623,3.559948 -2.922623,3.559948 l 18.429676,-0.07255 c 10.072516,-0.5308 10.396491,-8.162476 10.396491,-8.162476 V 61.010719 c -0.3571,-7.645206 -7.944627,-8.200772 -9.835888,-8.220161 z m -8.778185,4.426167 h 7.893598 c 0,0 2.785032,0.298092 3.427134,3.800119 v 19.874223 c 0,0 -0.314542,2.11962 -1.589293,2.798507 0.05284,-0.334485 10e-7,-21.490916 0,-21.490916 0,0 0.116116,-3.431728 -2.716949,-3.48355 l -7.01449,0.05932 z m 0.0093,2.671171 h 5.901983 c 0,0 2.449,-0.0153 2.808504,2.988066 v 20.764292 c 0,0 -0.03981,0.809886 -0.763054,0.871696 -0.723241,0.06178 -7.989664,0 -7.989664,0 z M 76.047693,86.95778 C 72.23477,90.330555 69.17247,90.145076 69.17247,90.145076 H 50.435902 c -0.543431,0.910065 -1.768532,1.415211 -1.768532,1.415211 l 20.820064,-0.0083 c 5.334185,-1.242252 6.560266,-4.59449 6.560266,-4.59449 z" />
      <path
         id="path1699"
         style="fill:#ffffff;fill-opacity:1;stroke:none;stroke-width:0.165054px;stroke-linecap:butt;stroke-linejoin:miter;stroke-opacity:1"
         d="m 83.858446,52.735755 c 3.513357,0.693981 3.391032,3.868462 3.391032,3.868462 v 28.393545 c -0.172289,1.554791 -0.707438,2.451599 -1.272725,2.975495 V 58.979454 c 0,-2.79623 -1.367175,-3.626684 -1.367175,-3.626684 h -2.679236 c 2.951369,0.790818 2.998377,3.242094 2.998377,3.242094 v 29.948988 h 0.129597 c -0.413751,0.15374 -0.725654,0.159901 -0.725654,0.159901 H 96.985433 C 94.483995,88.449861 94.31103,85.068688 94.31103,85.068688 V 73.493924 h 6.09896 c 2.87564,0 3.0722,3.072204 3.0722,3.072204 V 88.47938 c -0.41919,0.199729 -0.72244,0.279821 -0.72244,0.279821 h 13.25239 c -3.11506,-0.108067 -3.08445,-3.145705 -3.08445,-3.145705 V 73.311461 c -0.13872,-3.227923 -3.32431,-4.648601 -3.32431,-4.648601 3.27416,-1.252586 3.37685,-4.595089 3.37685,-4.595089 v -8.09508 c 0.51496,-2.199197 3.17021,-3.170204 3.17021,-3.170204 h -13.91905 c 3.20407,0.564991 3.59219,3.246606 3.59219,3.246606 v 6.744342 c -0.4006,1.611672 -1.00968,2.481598 -1.56802,2.950347 v -8.110231 c 0,-1.55259 -1.22243,-2.117016 -1.22243,-2.117016 h -2.42101 c 3.02939,0.811725 2.68084,3.679229 2.68084,3.679229 v 7.047694 c -0.23577,0.05438 -0.38846,0.04255 -0.38846,0.04255 H 94.468351 V 56.40467 c -0.05719,-2.164559 1.326695,-3.37443 2.920047,-3.668915 z m 13.126987,35.967998 c 0.20048,0.02037 0.414176,0.02321 0.645712,0 z M 94.31103,70.893027 h 8.35202 c 3.40626,1.195956 3.29721,3.591224 3.29721,3.591224 v 11.023182 c -0.27207,1.304714 -1.09454,2.121605 -1.83784,2.611215 V 75.810487 c 0,-3.390669 -3.42294,-3.422944 -3.42294,-3.422944 h -6.38845 z m -10.6776,19.42645 c -0.305893,1.141609 -2.105085,1.373629 -2.105085,1.373629 l 14.114731,0.03156 c -1.793089,0 -2.433583,-1.405218 -2.433583,-1.405218 z m 18.88906,0 c -0.30589,1.141609 -2.10509,1.373629 -2.10509,1.373629 l 14.11473,0.03156 c -1.79308,0 -2.43359,-1.405218 -2.43359,-1.405218 z" />
      <text
         xml:space="preserve"
         style="font-style:normal;font-variant:normal;font-weight:bold;font-stretch:normal;font-size:9.13137px;line-height:1.25;font-family:Amiri;-inkscape-font-specification:'Amiri Bold';fill:#ffffff;fill-opacity:1;stroke:none;stroke-width:0.190237"
         x="18.55377"
         y="104.33549"
         id="text3620"><tspan
           sodipodi:role="line"
           id="tspan3618"
           style="font-style:normal;font-variant:normal;font-weight:bold;font-stretch:normal;font-family:Amiri;-inkscape-font-specification:'Amiri Bold';fill:#ffffff;fill-opacity:1;stroke:none;stroke-width:0.190237"
           x="18.55377"
           y="104.33549">GESTÃO EMPRESARIAL</tspan></text>
    </g>
  </g>
</svg>
